<svg data-v-0dd9719b="" version="1.0" xmlns="http://www.w3.org/2000/svg" xmlns:xlink="http://www.w3.org/1999/xlink" width="100%" height="100%" viewBox="0 0 340.000000 250.000000" preserveAspectRatio="xMidYMid meet" color-interpolation-filters="sRGB" style="margin: auto;"> <rect data-v-0dd9719b="" x="0" y="0" width="100%" height="100%" fill="#fff" fill-opacity="1" class="background"></rect> <rect data-v-0dd9719b="" x="0" y="0" width="100%" height="100%" fill="url(#watermark)" fill-opacity="1" class="watermarklayer"></rect> <g data-v-0dd9719b="" fill="#333" class="icon-text-wrapper icon-svg-group iconsvg" transform="translate(47.95500183105469,96.40896606445312)"><g class="iconsvg-imagesvg" transform="translate(0,0)"><g><rect fill="#333" fill-opacity="0" stroke-width="2" x="0" y="0" width="60" height="57.18206770356816" class="image-rect"></rect> <svg x="0" y="0" width="60" height="57.18206770356816" filtersec="colorsb7569760962" class="image-svg-svg primary" style="overflow: visible;"><svg xmlns="http://www.w3.org/2000/svg" viewBox="-0.020415084436535835 0.001385807991027832 184.21417236328125 175.56202697753906"><path d="M152 13.23l2.13 1.93c1.06.73 1.86 1.74 2.87 2.53 20.09 20.42 29.38 45 26.76 73.46-3.08 33.33-19.93 58.18-49.4 73.79-22.64 12-46.66 13.82-71.07 5.53-9.75-3.31-17.68-9.28-22.12-19a34.4 34.4 0 0 1-2.63-21c2.71-14.57 16.88-22.1 30.65-16.37 3.76 1.56 7.43 3.35 11.23 4.8a34.14 34.14 0 0 0 24.63-.12c1.4-.51 2.79-1.06 4.19-1.59 7.6-2 15.39-3.11 22.66-6.39 16.08-7.24 26.6-19.23 31.86-36a70.21 70.21 0 0 0 3.09-20.65 56.81 56.81 0 0 0-7.58-28.12 49.5 49.5 0 0 0-6.27-9.18 6.35 6.35 0 0 1-1.66-2.47c-.02-.53-.09-1.11.66-1.15z" fill="#be1e2d"></path><path d="M73.1 49.54a63.76 63.76 0 0 0-41.37 23.18 56.32 56.32 0 0 0-13.11 32.21c-1 12.49 2.12 24 7.57 35a87.1 87.1 0 0 0 7 11.69c1.11 1 2.41 1.94 2.07 3.76a87.52 87.52 0 0 1-25.18-30.51A89.87 89.87 0 0 1 .7 72.12C3.56 48.39 14.29 28.71 32.33 13c5.86-5.09 12.31-9.07 19.93-11 12.59-3.12 24.45 1.6 31.06 12.41a24.27 24.27 0 0 1-3.57 29.45c-2.06 2.14-4.48 3.75-6.65 5.68z" fill="#fddd16"></path><path d="M151.66 14.18a62 62 0 0 1 14.1 26.26c5.69 22.76-2.2 54.76-29 68.8a81.2 81.2 0 0 1-26.76 8.17 2.38 2.38 0 0 1-.71-.15c10.63-6 17.71-14.67 20.22-26.77a38.18 38.18 0 0 0-19.35-41.32 56.52 56.52 0 0 0-11.77-4.74 3.43 3.43 0 0 1-2.44-2.14c-7.57-17 3.77-38.36 22.12-41.71 10-1.83 18.74.74 26.63 6.87.46.35.94.68 1.41 1 1.89 1.93 4.43 3.11 5.55 5.73z" fill="#25a9e1"></path><path d="M106.68 55.78c-10.45-5.85-21.83-7.18-33.58-6.24-1-.76-2.07-.36-3.12-.16A63.85 63.85 0 0 0 35.15 68C22.55 80.91 16.55 96.2 18 114.31a65.52 65.52 0 0 0 2.94 14.74 80.71 80.71 0 0 0 5.92 13.71c.95 1.75 1.93 3.51 3 5.17 1.71 2.56 3.88 4.77 5.45 7.44a3.29 3.29 0 0 0 .63.85c.32.27 1.1.56.9-.11a9.16 9.16 0 0 0-.85-1.53l-1-1.86-1.86-3.63c-2.07-6.1-3.42-12.23-2.51-18.81 2.34-17 20.66-29.12 37.22-24.38 5.15 1.47 9.76 4.22 14.76 6a27.83 27.83 0 0 0 23.63-1.68c10.69-5.76 16.32-14.94 16.44-27.14s-5.37-21.36-15.99-27.3z" fill="#f5903d"></path><path d="M151.66 14.18c-1.85-1.9-3.7-3.81-5.56-5.71 2.12 1.42 4.43 2.59 5.94 4.76zM157 17.69c-1.39-.35-2.09-1.49-2.87-2.53 1.43.36 2.14 1.47 2.87 2.53z" fill="#b65966"></path></svg></svg> <!----></g></g> <g transform="translate(67,13.836033821105957)"><g data-gra="path-name" fill-rule="" class="tp-name iconsvg-namesvg"><g transform="scale(1)"><g><path d="M2.71 0L23.94 0 23.94-5.41 8.28-5.41 8.28-12.13 22.63-12.13 22.63-17.22 8.28-17.22 8.28-23.32 23.94-23.32 23.94-28.7 2.71-28.7ZM40.83 0.41C48.99 0.41 53.41-4.39 54.36-10.33L48.74-10.33C47.8-6.76 44.89-4.43 40.66-4.43 35.05-4.43 31.48-9.39 31.48-14.76 31.48-20.41 35.46-24.23 40.58-24.23 45.46-24.23 48-21.48 48.82-18.08L54.36-18.08C53.54-25.13 48-29.1 40.21-29.1 31.48-29.1 26.07-22.51 26.07-14.35 26.07-6.23 31.03 0.41 40.83 0.41ZM56.53-14.35C56.53-4.92 63.13 0.41 71.41 0.41 79.9 0.41 86.45-4.92 86.45-14.35 86.45-24.23 79.9-29.1 71.41-29.1 63.13-29.1 56.53-23.82 56.53-14.35ZM62.1-14.35C62.1-20.74 66.16-23.9 71.41-23.9 76.82-23.9 80.92-20.74 80.92-14.35 80.92-7.95 76.82-4.84 71.41-4.84 66.16-4.84 62.1-7.95 62.1-14.35ZM97.4 0L103.22 0 109.62-19.64 109.9-19.64 115.76 0 121.54 0 132.04-28.7 125.77-28.7 119.17-7.46 118.88-7.46 112.2-28.7 107.73-28.7 100.88-7.46 100.6-7.46 93.46-28.7 87.19-28.7ZM145.48-28.7L138.47-28.7 128.18 0 134.17 0 135.97-5.33 148.44-5.33 150.36 0 156.76 0ZM137.41-9.63L141.79-22.75 142.2-22.75 146.92-9.63ZM169.75-11.48L179.8-28.7 173.52-28.7 167.21-17.22 160.77-28.7 154.42-28.7 164.22-11.48 164.22 0 169.75 0Z" transform="translate(-2.7100000381469727, 29.100000381469727)"></path></g> <!----> <!----> <!----> <!----> <!----> <!----> <!----></g></g> <!----></g></g><defs v-gra="od"></defs></svg>